<?xml version="1.0" encoding="UTF-8" standalone="no"?>
<!DOCTYPE svg PUBLIC "-//W3C//DTD SVG 1.1//EN" "http://www.w3.org/Graphics/SVG/1.1/DTD/svg11.dtd">
<svg width="100%" height="100%" viewBox="0 0 573 104" version="1.1" xmlns="http://www.w3.org/2000/svg" xmlns:xlink="http://www.w3.org/1999/xlink" xml:space="preserve" xmlns:serif="http://www.serif.com/" style="fill-rule:evenodd;clip-rule:evenodd;stroke-linecap:round;stroke-miterlimit:10;">
    <g transform="matrix(1,0,0,1,-993.633,-215.923)">
        <g transform="matrix(1.36265,0,0,1.36265,-464.413,-70.4045)">
            <g id="accent" transform="matrix(1.1666,0,0,1.1666,-186.297,-41.1282)">
                <g transform="matrix(1.04781,0,0,1.15107,-60.0958,-33.9275)">
                    <g transform="matrix(0.600361,-0,-0,0.546504,1085.11,216.582)">
                        <path d="M20.65,15.066L21.484,16.733L22.317,15.066L20.65,15.066Z" style="fill:white;stroke:white;stroke-width:0.83px;"/>
                        <path d="M21.484,94.726L21.484,16.733" style="fill:none;stroke:white;stroke-width:0.83px;stroke-linejoin:round;stroke-miterlimit:1.5;"/>
                    </g>
                </g>
                <g transform="matrix(1.04781,0,0,1.15107,-60.0958,-33.9275)">
                    <g transform="matrix(0.600361,-0,-0,0.546504,1085.11,216.582)">
                        <path d="M285.326,92.643L281.159,94.726L285.326,96.809L285.326,92.643Z" style="fill:white;stroke:white;stroke-width:2.08px;"/>
                        <path d="M8.839,94.726L281.159,94.726" style="fill:none;stroke:white;stroke-width:2.08px;stroke-linejoin:round;stroke-miterlimit:1.5;"/>
                    </g>
                </g>
            </g>
        </g>
        <g transform="matrix(1.36265,0,0,1.36265,-464.413,-70.4045)">
            <g id="accent1" serif:id="accent" transform="matrix(-1.1666,-1.42868e-16,1.42868e-16,-1.1666,2746.63,537.382)">
                <g transform="matrix(1.04781,0,0,1.15107,-60.0958,-33.9275)">
                    <g transform="matrix(-0.600361,6.69275e-17,-7.3523e-17,-0.546504,1428.96,273.18)">
                        <path d="M552.084,88.499L551.251,86.832L550.418,88.499L552.084,88.499Z" style="fill:white;stroke:white;stroke-width:0.83px;"/>
                        <path d="M551.251,8.839L551.251,86.832" style="fill:none;stroke:white;stroke-width:0.83px;stroke-linejoin:round;stroke-miterlimit:1.5;"/>
                    </g>
                </g>
                <g transform="matrix(1.04781,0,0,1.15107,-60.0958,-33.9275)">
                    <g transform="matrix(-0.600361,6.69275e-17,-7.3523e-17,-0.546504,1428.96,273.18)">
                        <path d="M287.409,10.922L291.576,8.839L287.409,6.756L287.409,10.922Z" style="fill:white;stroke:white;stroke-width:2.08px;"/>
                        <path d="M563.896,8.839L291.576,8.839" style="fill:none;stroke:white;stroke-width:2.08px;stroke-linejoin:round;stroke-miterlimit:1.5;"/>
                    </g>
                </g>
            </g>
        </g>
    </g>
</svg>
