<?xml version="1.0" encoding="UTF-8" standalone="no"?>
<!DOCTYPE svg PUBLIC "-//W3C//DTD SVG 1.1//EN" "http://www.w3.org/Graphics/SVG/1.1/DTD/svg11.dtd">
<svg width="100%" height="100%" viewBox="0 0 2565 35" version="1.1" xmlns="http://www.w3.org/2000/svg" xmlns:xlink="http://www.w3.org/1999/xlink" xml:space="preserve" xmlns:serif="http://www.serif.com/" style="fill-rule:evenodd;clip-rule:evenodd;stroke-linecap:round;stroke-linejoin:round;stroke-miterlimit:1.5;">
    <g transform="matrix(1,0,0,1,2.08333,-1480.99)">
        <g id="Bar" transform="matrix(0.969196,0,0,0.600881,-4.40536e-13,551.993)">
            <g>
                <rect x="0" y="1549.53" width="203.182" height="49.927" style="fill:rgb(79,103,139);stroke:rgb(79,103,139);stroke-width:5.17px;"/>
                <g transform="matrix(1,0,0,1,406.364,0)">
                    <rect x="0" y="1549.53" width="203.182" height="49.927" style="fill:rgb(79,103,139);stroke:rgb(79,103,139);stroke-width:5.17px;"/>
                </g>
                <g transform="matrix(1,0,0,1,812.728,0)">
                    <rect x="0" y="1549.53" width="203.182" height="49.927" style="fill:rgb(79,103,139);stroke:rgb(79,103,139);stroke-width:5.17px;"/>
                </g>
                <g transform="matrix(1,0,0,1,1219.09,0)">
                    <rect x="0" y="1549.53" width="203.182" height="49.927" style="fill:rgb(79,103,139);stroke:rgb(79,103,139);stroke-width:5.17px;"/>
                </g>
                <g transform="matrix(1,0,0,1,1625.46,0)">
                    <rect x="0" y="1549.53" width="203.182" height="49.927" style="fill:rgb(79,103,139);stroke:rgb(79,103,139);stroke-width:5.17px;"/>
                </g>
                <g transform="matrix(1,0,0,1,2031.82,0)">
                    <rect x="0" y="1549.53" width="203.182" height="49.927" style="fill:rgb(79,103,139);stroke:rgb(79,103,139);stroke-width:5.17px;"/>
                </g>
                <g transform="matrix(1,0,0,1,2438.18,0)">
                    <rect x="0" y="1549.53" width="203.182" height="49.927" style="fill:rgb(79,103,139);stroke:rgb(79,103,139);stroke-width:5.17px;"/>
                </g>
            </g>
            <g>
                <g transform="matrix(1,0,0,1,203.182,0)">
                    <rect x="0" y="1549.53" width="203.182" height="49.927" style="fill:none;stroke:rgb(79,103,139);stroke-width:5.17px;"/>
                </g>
                <g transform="matrix(1,0,0,1,609.546,0)">
                    <rect x="0" y="1549.53" width="203.182" height="49.927" style="fill:none;stroke:rgb(79,103,139);stroke-width:5.17px;"/>
                </g>
                <g transform="matrix(1,0,0,1,1015.91,0)">
                    <rect x="0" y="1549.53" width="203.182" height="49.927" style="fill:none;stroke:rgb(79,103,139);stroke-width:5.17px;"/>
                </g>
                <g transform="matrix(1,0,0,1,1422.27,0)">
                    <rect x="0" y="1549.53" width="203.182" height="49.927" style="fill:none;stroke:rgb(79,103,139);stroke-width:5.17px;"/>
                </g>
                <g transform="matrix(1,0,0,1,1828.64,0)">
                    <rect x="0" y="1549.53" width="203.182" height="49.927" style="fill:none;stroke:rgb(79,103,139);stroke-width:5.17px;"/>
                </g>
                <g transform="matrix(1,0,0,1,2235,0)">
                    <rect x="0" y="1549.53" width="203.182" height="49.927" style="fill:none;stroke:rgb(79,103,139);stroke-width:5.17px;"/>
                </g>
            </g>
        </g>
    </g>
</svg>
