<?xml version="1.0" encoding="UTF-8" standalone="no"?>
<!DOCTYPE svg PUBLIC "-//W3C//DTD SVG 1.1//EN" "http://www.w3.org/Graphics/SVG/1.1/DTD/svg11.dtd">
<svg width="100%" height="100%" viewBox="0 0 573 98" version="1.1" xmlns="http://www.w3.org/2000/svg" xmlns:xlink="http://www.w3.org/1999/xlink" xml:space="preserve" xmlns:serif="http://www.serif.com/" style="fill-rule:evenodd;clip-rule:evenodd;stroke-linecap:round;stroke-miterlimit:10;">
    <g transform="matrix(1,0,0,1,-993.633,-221.733)">
        <g transform="matrix(1.36265,0,0,1.36265,-464.413,-70.4045)">
            <g id="accent" transform="matrix(1.1666,0,0,1.1666,-186.297,-41.1282)">
                <g transform="matrix(1.04781,0,0,1.15107,-60.0958,-33.9275)">
                    <g transform="matrix(0.600361,-0,-0,0.546504,1085.11,219.757)">
                        <path d="M20.65,9.256L21.484,10.922L22.317,9.256L20.65,9.256Z" style="fill:white;stroke:white;stroke-width:0.83px;"/>
                        <path d="M21.484,88.915L21.484,10.922" style="fill:none;stroke:white;stroke-width:0.83px;stroke-linejoin:round;stroke-miterlimit:1.5;"/>
                    </g>
                </g>
                <g transform="matrix(0.714559,0,0,0.784976,303.285,64.3125)">
                    <g transform="matrix(0.880351,-0,-0,0.801378,1082.64,197.095)">
                        <path d="M197.059,86.832L192.893,88.915L197.059,90.999L197.059,86.832Z" style="fill:white;stroke:white;stroke-width:2.08px;"/>
                        <path d="M8.839,88.915L192.893,88.915" style="fill:none;stroke:white;stroke-width:2.08px;stroke-linejoin:round;stroke-miterlimit:1.5;"/>
                    </g>
                </g>
            </g>
        </g>
        <g transform="matrix(1.36265,0,0,1.36265,-464.413,-70.4045)">
            <g id="accent1" serif:id="accent" transform="matrix(-1.1666,1.42868e-16,-1.42868e-16,-1.1666,2746.3,541.646)">
                <g transform="matrix(1.04781,0,0,1.15107,-60.0958,-33.9275)">
                    <g transform="matrix(-0.600361,-6.69275e-17,7.3523e-17,-0.546504,1428.69,273.18)">
                        <path d="M551.634,88.499L550.8,86.832L549.967,88.499L551.634,88.499Z" style="fill:white;stroke:white;stroke-width:0.83px;"/>
                        <path d="M550.8,8.839L550.8,86.832" style="fill:none;stroke:white;stroke-width:0.83px;stroke-linejoin:round;stroke-miterlimit:1.5;"/>
                    </g>
                </g>
                <g transform="matrix(0.714559,0,0,0.784976,303.285,64.3125)">
                    <g transform="matrix(-0.880351,-9.81405e-17,1.07812e-16,-0.801378,1586.45,275.433)">
                        <path d="M375.225,10.922L379.391,8.839L375.225,6.756L375.225,10.922Z" style="fill:white;stroke:white;stroke-width:2.08px;"/>
                        <path d="M563.445,8.839L379.391,8.839" style="fill:none;stroke:white;stroke-width:2.08px;stroke-linejoin:round;stroke-miterlimit:1.5;"/>
                    </g>
                </g>
            </g>
        </g>
    </g>
</svg>
